<mxfile host="app.diagrams.net" modified="2024-05-15T01:30:39.692Z" agent="Mozilla/5.0 (Windows NT 10.0; Win64; x64) AppleWebKit/537.36 (KHTML, like Gecko) Chrome/124.0.0.0 Safari/537.36" etag="BvM-sFw_XZWOCLdRj9P7" version="24.4.0" type="github" pages="2">
  <diagram name="Página-1" id="_hupq9xfHz4czOpPQv_P">
    <mxGraphModel dx="3269" dy="1972" grid="1" gridSize="10" guides="1" tooltips="1" connect="1" arrows="1" fold="1" page="1" pageScale="1" pageWidth="827" pageHeight="1169" math="0" shadow="0">
      <root>
        <mxCell id="0" />
        <mxCell id="1" parent="0" />
        <mxCell id="60HjNV7C6yeVvWdOEyG_-1" value="&lt;p style=&quot;line-height: 0%;&quot;&gt;&lt;br&gt;&lt;/p&gt;" style="whiteSpace=wrap;html=1;aspect=fixed;fillColor=none;strokeColor=default;strokeWidth=1;dashed=1;align=left;" vertex="1" parent="1">
          <mxGeometry x="-975" y="190" width="75" height="75" as="geometry" />
        </mxCell>
        <mxCell id="60HjNV7C6yeVvWdOEyG_-2" value="&lt;span style=&quot;background-color: rgb(33, 33, 33); color: rgb(236, 236, 236); font-family: Söhne, ui-sans-serif, system-ui, -apple-system, &amp;quot;Segoe UI&amp;quot;, Roboto, Ubuntu, Cantarell, &amp;quot;Noto Sans&amp;quot;, sans-serif, &amp;quot;Helvetica Neue&amp;quot;, Arial, &amp;quot;Apple Color Emoji&amp;quot;, &amp;quot;Segoe UI Emoji&amp;quot;, &amp;quot;Segoe UI Symbol&amp;quot;, &amp;quot;Noto Color Emoji&amp;quot;; text-align: start; white-space: pre-wrap;&quot;&gt;&lt;b style=&quot;&quot;&gt;&lt;font style=&quot;font-size: 24px;&quot;&gt;HealthFlix&lt;/font&gt;&lt;/b&gt;&lt;/span&gt;" style="text;html=1;align=center;verticalAlign=middle;resizable=0;points=[];autosize=1;strokeColor=none;fillColor=none;" vertex="1" parent="1">
          <mxGeometry x="-300" y="-190" width="140" height="40" as="geometry" />
        </mxCell>
        <mxCell id="60HjNV7C6yeVvWdOEyG_-3" value="" style="sketch=0;pointerEvents=1;shadow=0;dashed=0;html=1;strokeColor=none;labelPosition=center;verticalLabelPosition=bottom;verticalAlign=top;align=center;fillColor=#505050;shape=mxgraph.mscae.intune.device_os" vertex="1" parent="1">
          <mxGeometry x="-959.5" y="200" width="49" height="50" as="geometry" />
        </mxCell>
        <mxCell id="60HjNV7C6yeVvWdOEyG_-4" value="Devices" style="rounded=0;whiteSpace=wrap;html=1;fontSize=8;gradientColor=none;strokeColor=none;" vertex="1" parent="1">
          <mxGeometry x="-980" y="180" width="34.5" height="10" as="geometry" />
        </mxCell>
        <mxCell id="60HjNV7C6yeVvWdOEyG_-5" style="edgeStyle=orthogonalEdgeStyle;rounded=0;orthogonalLoop=1;jettySize=auto;html=1;entryX=0.5;entryY=0;entryDx=0;entryDy=0;" edge="1" parent="1" source="60HjNV7C6yeVvWdOEyG_-7" target="60HjNV7C6yeVvWdOEyG_-9">
          <mxGeometry relative="1" as="geometry">
            <mxPoint x="-410" y="280" as="targetPoint" />
          </mxGeometry>
        </mxCell>
        <mxCell id="60HjNV7C6yeVvWdOEyG_-6" style="edgeStyle=orthogonalEdgeStyle;rounded=0;orthogonalLoop=1;jettySize=auto;html=1;entryX=0.5;entryY=1;entryDx=0;entryDy=0;" edge="1" parent="1" source="60HjNV7C6yeVvWdOEyG_-7" target="60HjNV7C6yeVvWdOEyG_-11">
          <mxGeometry relative="1" as="geometry">
            <mxPoint x="-410" y="180.00000000000003" as="targetPoint" />
          </mxGeometry>
        </mxCell>
        <mxCell id="60HjNV7C6yeVvWdOEyG_-7" value="API - AUTH" style="rounded=1;whiteSpace=wrap;html=1;fontSize=6;" vertex="1" parent="1">
          <mxGeometry x="-450" y="217.5" width="80" height="20" as="geometry" />
        </mxCell>
        <mxCell id="60HjNV7C6yeVvWdOEyG_-8" style="edgeStyle=orthogonalEdgeStyle;rounded=0;orthogonalLoop=1;jettySize=auto;html=1;entryX=0.5;entryY=0;entryDx=0;entryDy=0;" edge="1" parent="1" source="60HjNV7C6yeVvWdOEyG_-9" target="60HjNV7C6yeVvWdOEyG_-34">
          <mxGeometry relative="1" as="geometry">
            <mxPoint x="-490" y="360" as="targetPoint" />
          </mxGeometry>
        </mxCell>
        <mxCell id="60HjNV7C6yeVvWdOEyG_-9" value="API - UX - LOGIN" style="rounded=1;whiteSpace=wrap;html=1;fontSize=6;" vertex="1" parent="1">
          <mxGeometry x="-450" y="280" width="80" height="20" as="geometry" />
        </mxCell>
        <mxCell id="60HjNV7C6yeVvWdOEyG_-10" style="edgeStyle=orthogonalEdgeStyle;rounded=0;orthogonalLoop=1;jettySize=auto;html=1;entryX=0.5;entryY=1;entryDx=0;entryDy=0;" edge="1" parent="1" source="60HjNV7C6yeVvWdOEyG_-11" target="60HjNV7C6yeVvWdOEyG_-19">
          <mxGeometry relative="1" as="geometry" />
        </mxCell>
        <mxCell id="60HjNV7C6yeVvWdOEyG_-11" value="API - UX - REGISTER" style="rounded=1;whiteSpace=wrap;html=1;fontSize=6;" vertex="1" parent="1">
          <mxGeometry x="-450" y="160" width="80" height="20" as="geometry" />
        </mxCell>
        <mxCell id="60HjNV7C6yeVvWdOEyG_-12" style="edgeStyle=orthogonalEdgeStyle;rounded=0;orthogonalLoop=1;jettySize=auto;html=1;entryX=0;entryY=0.5;entryDx=0;entryDy=0;" edge="1" parent="1" source="60HjNV7C6yeVvWdOEyG_-37" target="60HjNV7C6yeVvWdOEyG_-14">
          <mxGeometry relative="1" as="geometry">
            <mxPoint x="-570" y="227" as="targetPoint" />
          </mxGeometry>
        </mxCell>
        <mxCell id="60HjNV7C6yeVvWdOEyG_-13" style="edgeStyle=orthogonalEdgeStyle;rounded=0;orthogonalLoop=1;jettySize=auto;html=1;entryX=0;entryY=0.5;entryDx=0;entryDy=0;" edge="1" parent="1" source="60HjNV7C6yeVvWdOEyG_-14" target="60HjNV7C6yeVvWdOEyG_-7">
          <mxGeometry relative="1" as="geometry" />
        </mxCell>
        <mxCell id="60HjNV7C6yeVvWdOEyG_-14" value="&lt;font style=&quot;font-size: 7px;&quot;&gt;Api-Home-Page&lt;br&gt;(Web App)&lt;/font&gt;" style="rounded=1;whiteSpace=wrap;html=1;" vertex="1" parent="1">
          <mxGeometry x="-570" y="211.88" width="70" height="30" as="geometry" />
        </mxCell>
        <mxCell id="60HjNV7C6yeVvWdOEyG_-15" style="edgeStyle=orthogonalEdgeStyle;rounded=0;orthogonalLoop=1;jettySize=auto;html=1;" edge="1" parent="1" source="60HjNV7C6yeVvWdOEyG_-19" target="60HjNV7C6yeVvWdOEyG_-21">
          <mxGeometry relative="1" as="geometry" />
        </mxCell>
        <mxCell id="60HjNV7C6yeVvWdOEyG_-16" value="&lt;font style=&quot;font-size: 8px;&quot;&gt;Write&lt;/font&gt;" style="edgeLabel;html=1;align=center;verticalAlign=middle;resizable=0;points=[];" vertex="1" connectable="0" parent="60HjNV7C6yeVvWdOEyG_-15">
          <mxGeometry x="-0.3477" y="1" relative="1" as="geometry">
            <mxPoint as="offset" />
          </mxGeometry>
        </mxCell>
        <mxCell id="60HjNV7C6yeVvWdOEyG_-17" style="edgeStyle=orthogonalEdgeStyle;rounded=0;orthogonalLoop=1;jettySize=auto;html=1;" edge="1" parent="1" source="60HjNV7C6yeVvWdOEyG_-19" target="60HjNV7C6yeVvWdOEyG_-20">
          <mxGeometry relative="1" as="geometry" />
        </mxCell>
        <mxCell id="60HjNV7C6yeVvWdOEyG_-18" value="&lt;font style=&quot;font-size: 8px;&quot;&gt;Write&lt;/font&gt;" style="edgeLabel;html=1;align=center;verticalAlign=middle;resizable=0;points=[];" vertex="1" connectable="0" parent="60HjNV7C6yeVvWdOEyG_-17">
          <mxGeometry x="-0.5404" relative="1" as="geometry">
            <mxPoint as="offset" />
          </mxGeometry>
        </mxCell>
        <mxCell id="60HjNV7C6yeVvWdOEyG_-19" value="API - BS - REGISTER" style="rounded=1;whiteSpace=wrap;html=1;fontSize=6;" vertex="1" parent="1">
          <mxGeometry x="-450" y="90" width="80" height="20" as="geometry" />
        </mxCell>
        <mxCell id="60HjNV7C6yeVvWdOEyG_-20" value="" style="fontColor=#ffffff;verticalAlign=top;verticalLabelPosition=bottom;labelPosition=center;align=center;html=1;outlineConnect=0;fillColor=#CCCCCC;strokeColor=#6881B3;gradientColor=none;gradientDirection=north;strokeWidth=2;shape=mxgraph.networks.storage;" vertex="1" parent="1">
          <mxGeometry x="-530" y="-20" width="30" height="40" as="geometry" />
        </mxCell>
        <mxCell id="60HjNV7C6yeVvWdOEyG_-21" value="" style="sketch=0;pointerEvents=1;shadow=0;dashed=0;html=1;strokeColor=none;fillColor=#434445;aspect=fixed;labelPosition=center;verticalLabelPosition=bottom;verticalAlign=top;align=center;outlineConnect=0;shape=mxgraph.vvd.storage;rotation=90;" vertex="1" parent="1">
          <mxGeometry x="-425.94" y="-20" width="31.88" height="42.5" as="geometry" />
        </mxCell>
        <mxCell id="60HjNV7C6yeVvWdOEyG_-22" style="edgeStyle=orthogonalEdgeStyle;rounded=0;orthogonalLoop=1;jettySize=auto;html=1;" edge="1" parent="1" source="60HjNV7C6yeVvWdOEyG_-26" target="60HjNV7C6yeVvWdOEyG_-21">
          <mxGeometry relative="1" as="geometry" />
        </mxCell>
        <mxCell id="60HjNV7C6yeVvWdOEyG_-23" value="&lt;font style=&quot;font-size: 8px;&quot;&gt;Read&lt;/font&gt;" style="edgeLabel;html=1;align=center;verticalAlign=middle;resizable=0;points=[];" vertex="1" connectable="0" parent="60HjNV7C6yeVvWdOEyG_-22">
          <mxGeometry x="-0.1851" y="-1" relative="1" as="geometry">
            <mxPoint as="offset" />
          </mxGeometry>
        </mxCell>
        <mxCell id="60HjNV7C6yeVvWdOEyG_-24" style="edgeStyle=orthogonalEdgeStyle;rounded=0;orthogonalLoop=1;jettySize=auto;html=1;entryX=-0.001;entryY=0.537;entryDx=0;entryDy=0;entryPerimeter=0;" edge="1" parent="1" source="60HjNV7C6yeVvWdOEyG_-26" target="60HjNV7C6yeVvWdOEyG_-27">
          <mxGeometry relative="1" as="geometry">
            <mxPoint x="-190" y="1.25" as="targetPoint" />
          </mxGeometry>
        </mxCell>
        <mxCell id="60HjNV7C6yeVvWdOEyG_-25" value="&lt;font style=&quot;font-size: 8px;&quot;&gt;Write&lt;/font&gt;" style="edgeLabel;html=1;align=center;verticalAlign=middle;resizable=0;points=[];" vertex="1" connectable="0" parent="60HjNV7C6yeVvWdOEyG_-24">
          <mxGeometry x="-0.1164" relative="1" as="geometry">
            <mxPoint as="offset" />
          </mxGeometry>
        </mxCell>
        <mxCell id="60HjNV7C6yeVvWdOEyG_-26" value="API - BS - ASYNC - REGISTER" style="rounded=1;whiteSpace=wrap;html=1;fontSize=6;" vertex="1" parent="1">
          <mxGeometry x="-330" y="-8.75" width="80" height="20" as="geometry" />
        </mxCell>
        <mxCell id="60HjNV7C6yeVvWdOEyG_-27" value="" style="shape=image;verticalLabelPosition=bottom;labelBackgroundColor=default;verticalAlign=top;aspect=fixed;imageAspect=0;image=https://www.svgrepo.com/show/331488/mongodb.svg;" vertex="1" parent="1">
          <mxGeometry x="-210" y="-20" width="40" height="40" as="geometry" />
        </mxCell>
        <mxCell id="60HjNV7C6yeVvWdOEyG_-28" value="API - BS - ACCOUNTS" style="rounded=1;whiteSpace=wrap;html=1;fontSize=6;" vertex="1" parent="1">
          <mxGeometry x="-330" y="90" width="80" height="20" as="geometry" />
        </mxCell>
        <mxCell id="60HjNV7C6yeVvWdOEyG_-29" style="edgeStyle=orthogonalEdgeStyle;rounded=0;orthogonalLoop=1;jettySize=auto;html=1;entryX=-0.037;entryY=0.511;entryDx=0;entryDy=0;entryPerimeter=0;" edge="1" parent="1" source="60HjNV7C6yeVvWdOEyG_-19" target="60HjNV7C6yeVvWdOEyG_-28">
          <mxGeometry relative="1" as="geometry" />
        </mxCell>
        <mxCell id="60HjNV7C6yeVvWdOEyG_-30" style="edgeStyle=orthogonalEdgeStyle;rounded=0;orthogonalLoop=1;jettySize=auto;html=1;entryX=0.515;entryY=1.086;entryDx=0;entryDy=0;entryPerimeter=0;" edge="1" parent="1" source="60HjNV7C6yeVvWdOEyG_-28" target="60HjNV7C6yeVvWdOEyG_-27">
          <mxGeometry relative="1" as="geometry" />
        </mxCell>
        <mxCell id="60HjNV7C6yeVvWdOEyG_-31" value="&lt;font style=&quot;font-size: 8px;&quot;&gt;Read&lt;/font&gt;" style="edgeLabel;html=1;align=center;verticalAlign=middle;resizable=0;points=[];" vertex="1" connectable="0" parent="60HjNV7C6yeVvWdOEyG_-30">
          <mxGeometry x="-0.353" y="-1" relative="1" as="geometry">
            <mxPoint x="-4" y="-1" as="offset" />
          </mxGeometry>
        </mxCell>
        <mxCell id="60HjNV7C6yeVvWdOEyG_-32" style="edgeStyle=orthogonalEdgeStyle;rounded=0;orthogonalLoop=1;jettySize=auto;html=1;entryX=0.5;entryY=0;entryDx=0;entryDy=0;" edge="1" parent="1" source="60HjNV7C6yeVvWdOEyG_-34" target="60HjNV7C6yeVvWdOEyG_-35">
          <mxGeometry relative="1" as="geometry" />
        </mxCell>
        <mxCell id="60HjNV7C6yeVvWdOEyG_-33" value="&lt;font style=&quot;font-size: 8px;&quot;&gt;Read&lt;/font&gt;" style="edgeLabel;html=1;align=center;verticalAlign=middle;resizable=0;points=[];" vertex="1" connectable="0" parent="60HjNV7C6yeVvWdOEyG_-32">
          <mxGeometry x="-0.2533" relative="1" as="geometry">
            <mxPoint as="offset" />
          </mxGeometry>
        </mxCell>
        <mxCell id="60HjNV7C6yeVvWdOEyG_-34" value="API - BS - ACCOUNTS" style="rounded=1;whiteSpace=wrap;html=1;fontSize=6;" vertex="1" parent="1">
          <mxGeometry x="-450" y="340" width="80" height="20" as="geometry" />
        </mxCell>
        <mxCell id="60HjNV7C6yeVvWdOEyG_-35" value="" style="shape=image;verticalLabelPosition=bottom;labelBackgroundColor=default;verticalAlign=top;aspect=fixed;imageAspect=0;image=https://www.svgrepo.com/show/331488/mongodb.svg;" vertex="1" parent="1">
          <mxGeometry x="-430" y="420" width="40" height="40" as="geometry" />
        </mxCell>
        <mxCell id="60HjNV7C6yeVvWdOEyG_-36" value="" style="edgeStyle=orthogonalEdgeStyle;rounded=0;orthogonalLoop=1;jettySize=auto;html=1;entryX=0;entryY=0.5;entryDx=0;entryDy=0;" edge="1" parent="1" source="60HjNV7C6yeVvWdOEyG_-39" target="60HjNV7C6yeVvWdOEyG_-37">
          <mxGeometry relative="1" as="geometry">
            <mxPoint x="-990" y="227" as="sourcePoint" />
            <mxPoint x="-660" y="227" as="targetPoint" />
          </mxGeometry>
        </mxCell>
        <mxCell id="60HjNV7C6yeVvWdOEyG_-37" value="Gateway" style="shape=image;verticalLabelPosition=bottom;labelBackgroundColor=default;verticalAlign=top;aspect=fixed;imageAspect=0;image=https://www.svgrepo.com/show/353978/kong-icon.svg;fontSize=8;" vertex="1" parent="1">
          <mxGeometry x="-670" y="202.5" width="50" height="50" as="geometry" />
        </mxCell>
        <mxCell id="60HjNV7C6yeVvWdOEyG_-38" value="" style="edgeStyle=orthogonalEdgeStyle;rounded=0;orthogonalLoop=1;jettySize=auto;html=1;entryX=0;entryY=0.5;entryDx=0;entryDy=0;" edge="1" parent="1" source="60HjNV7C6yeVvWdOEyG_-1" target="60HjNV7C6yeVvWdOEyG_-39">
          <mxGeometry relative="1" as="geometry">
            <mxPoint x="-900" y="227" as="sourcePoint" />
            <mxPoint x="-670" y="225" as="targetPoint" />
          </mxGeometry>
        </mxCell>
        <mxCell id="60HjNV7C6yeVvWdOEyG_-39" value="Balancing" style="shape=image;verticalLabelPosition=bottom;labelBackgroundColor=default;verticalAlign=top;aspect=fixed;imageAspect=0;image=https://static-00.iconduck.com/assets.00/file-type-nginx-icon-1793x2048-yt5u3fm7.png;fontSize=8;" vertex="1" parent="1">
          <mxGeometry x="-790" y="204.38" width="40.5" height="46.24" as="geometry" />
        </mxCell>
        <mxCell id="60HjNV7C6yeVvWdOEyG_-45" value="Authentication" style="swimlane;whiteSpace=wrap;html=1;" vertex="1" parent="1">
          <mxGeometry x="-1000" y="-70" width="950" height="565" as="geometry" />
        </mxCell>
      </root>
    </mxGraphModel>
  </diagram>
  <diagram id="fEvEP3gOb44BoeQmXXVh" name="Página-2">
    <mxGraphModel dx="1050" dy="522" grid="1" gridSize="10" guides="1" tooltips="1" connect="1" arrows="1" fold="1" page="1" pageScale="1" pageWidth="827" pageHeight="1169" math="0" shadow="0">
      <root>
        <mxCell id="0" />
        <mxCell id="1" parent="0" />
      </root>
    </mxGraphModel>
  </diagram>
</mxfile>
